<svg xmlns="http://www.w3.org/2000/svg" xmlns:xlink="http://www.w3.org/1999/xlink" width="116" height="116" viewBox="0 0 116 116">
  <defs>
    <filter id="Rectangle_401369" x="0" y="0" width="116" height="116" filterUnits="userSpaceOnUse">
      <feOffset dx="6" dy="7" input="SourceAlpha"/>
      <feGaussianBlur stdDeviation="4" result="blur"/>
      <feFlood flood-opacity="0.251"/>
      <feComposite operator="in" in2="blur"/>
      <feComposite in="SourceGraphic"/>
    </filter>
  </defs>
  <g id="Group_1178973" data-name="Group 1178973" transform="translate(-283.051 -3073)">
    <g transform="matrix(1, 0, 0, 1, 283.05, 3073)" filter="url(#Rectangle_401369)">
      <g id="Rectangle_401369-2" data-name="Rectangle 401369" transform="translate(6 5)" fill="#e0ee33" stroke="#fff" stroke-width="3">
        <path d="M0,0H63A29,29,0,0,1,92,29V63A29,29,0,0,1,63,92H29A29,29,0,0,1,0,63V0A0,0,0,0,1,0,0Z" stroke="none"/>
        <path d="M1.5,1.5H63A27.5,27.5,0,0,1,90.5,29V63A27.5,27.5,0,0,1,63,90.5H29A27.5,27.5,0,0,1,1.5,63V1.5A0,0,0,0,1,1.5,1.5Z" fill="none"/>
      </g>
    </g>
    <g id="design_8584588" transform="translate(282.448 3085.237)">
      <g id="Group_1178817" data-name="Group 1178817" transform="translate(27.801 7.5)">
        <path id="Path_1034650" data-name="Path 1034650" d="M75.08,9.837V59.014L64.447,69.648H30.139A2.337,2.337,0,0,1,27.8,67.311V9.837A2.337,2.337,0,0,1,30.139,7.5h42.6A2.337,2.337,0,0,1,75.08,9.837Z" transform="translate(-27.802 -7.5)" fill="#fcf1f2"/>
        <path id="Path_1034651" data-name="Path 1034651" d="M302.862,7.5H299.1a2.337,2.337,0,0,1,2.337,2.337V59.014L290.809,69.648h3.757L305.2,59.014V9.837A2.337,2.337,0,0,0,302.862,7.5Z" transform="translate(-257.921 -7.5)" fill="#f4e5e0"/>
        <g id="Group_1178815" data-name="Group 1178815" transform="translate(29.152 0.559)">
          <path id="Path_1034652" data-name="Path 1034652" d="M285.886,39.4,266.192,59.091l-5.258,1.558,1.559-5.257L282.187,35.7Z" transform="translate(-260.934 -32.731)" fill="#6c7fd8"/>
          <path id="Path_1034653" data-name="Path 1034653" d="M266.192,196.89l-5.258,1.558,1.559-5.257A4.13,4.13,0,0,1,266.192,196.89Z" transform="translate(-260.934 -170.53)" fill="#fdd79b"/>
          <path id="Path_1034654" data-name="Path 1034654" d="M266.192,196.89l-5.258,1.558,1.559-5.257A4.13,4.13,0,0,1,266.192,196.89Z" transform="translate(-260.934 -170.53)" fill="#fdd79b"/>
          <path id="Path_1034655" data-name="Path 1034655" d="M430.894,14.939l3.7,3.7,2.536-2.536a1.473,1.473,0,0,0,0-2.083L435.512,12.4a1.473,1.473,0,0,0-2.083,0Z" transform="translate(-409.641 -11.972)" fill="#fe646f"/>
          <path id="Path_1034656" data-name="Path 1034656" d="M449.466,14.019,447.85,12.4a1.473,1.473,0,0,0-2.083,0l-.772.772.774.719a1.473,1.473,0,0,1,0,2.083l-.748.752,1.909,1.909,2.535-2.536A1.473,1.473,0,0,0,449.466,14.019Z" transform="translate(-421.979 -11.972)" fill="#fd4755"/>
          <path id="Path_1034657" data-name="Path 1034657" d="M283.977,50.01,260.934,73.171l5.258-1.558,19.694-19.694Z" transform="translate(-260.934 -45.253)" fill="#4f66d0"/>
          <path id="Path_1034658" data-name="Path 1034658" d="M266.192,196.89l-5.258,1.558,1.559-5.257A4.13,4.13,0,0,1,266.192,196.89Z" transform="translate(-260.934 -170.53)" fill="#fdd79b"/>
          <path id="Path_1034659" data-name="Path 1034659" d="M260.934,206.637l5.258-1.558A4.223,4.223,0,0,0,265,202.551Z" transform="translate(-260.934 -178.72)" fill="#fbc56d"/>
        </g>
        <path id="Path_1034660" data-name="Path 1034660" d="M320.852,430.094v-8.3a2.337,2.337,0,0,1,2.337-2.337h8.3Z" transform="translate(-284.207 -367.946)" fill="#cdbfba"/>
        <g id="Group_1178816" data-name="Group 1178816" transform="translate(11.226 23.62)">
          <path id="Path_1034661" data-name="Path 1034661" d="M117.579,198.559v9.081h25.6v-1.287c0-2.386-3.1-5.058-6.428-5.058-4.248,0-8.056-1.808-9.775-4.067a2.155,2.155,0,0,0-1.718-.842h-5.5A2.174,2.174,0,0,0,117.579,198.559Z" transform="translate(-117.579 -196.385)" fill="#cdbfba"/>
          <path id="Path_1034662" data-name="Path 1034662" d="M117.579,286.391h25.6v2.477A1.178,1.178,0,0,1,142,290.045H118.757a1.178,1.178,0,0,1-1.178-1.178Z" transform="translate(-117.579 -275.136)" fill="#e6d6d1"/>
        </g>
      </g>
      <g id="Group_1178827" data-name="Group 1178827" transform="translate(27.801 7.5)">
        <g id="Group_1178818" data-name="Group 1178818" transform="translate(29.153 0.559)">
          <path id="Path_1034663" data-name="Path 1034663" d="M279.059,46.223,266.192,59.091l-5.258,1.558,1.559-5.257L282.187,35.7l3.7,3.7-3.714,3.714" transform="translate(-260.934 -32.731)" fill="none" stroke="#000" stroke-linecap="round" stroke-linejoin="round" stroke-miterlimit="10" stroke-width="1"/>
          <path id="Path_1034664" data-name="Path 1034664" d="M266.192,196.89l-5.258,1.558,1.559-5.257A4.13,4.13,0,0,1,266.192,196.89Z" transform="translate(-260.934 -170.53)" fill="none" stroke="#000" stroke-linecap="round" stroke-linejoin="round" stroke-miterlimit="10" stroke-width="1"/>
          <path id="Path_1034665" data-name="Path 1034665" d="M430.894,14.939l3.7,3.7,2.536-2.536a1.473,1.473,0,0,0,0-2.083L435.512,12.4a1.473,1.473,0,0,0-2.083,0Z" transform="translate(-409.641 -11.972)" fill="none" stroke="#000" stroke-linecap="round" stroke-linejoin="round" stroke-miterlimit="10" stroke-width="1"/>
        </g>
        <line id="Line_654" data-name="Line 654" y2="3.655" transform="translate(18.292 34.875)" fill="none" stroke="#000" stroke-linecap="round" stroke-linejoin="round" stroke-miterlimit="10" stroke-width="1"/>
        <line id="Line_655" data-name="Line 655" x1="1.916" y2="2.468" transform="translate(21.281 26.65)" fill="none" stroke="#000" stroke-linecap="round" stroke-linejoin="round" stroke-miterlimit="10" stroke-width="1"/>
        <line id="Line_656" data-name="Line 656" x1="1.991" y2="2.413" transform="translate(24.964 28.13)" fill="none" stroke="#000" stroke-linecap="round" stroke-linejoin="round" stroke-miterlimit="10" stroke-width="1"/>
        <g id="Group_1178821" data-name="Group 1178821" transform="translate(4.918 41.348)">
          <g id="Group_1178819" data-name="Group 1178819">
            <line id="Line_657" data-name="Line 657" y2="5.749" transform="translate(1.624)" fill="none" stroke="#000" stroke-linecap="round" stroke-linejoin="round" stroke-miterlimit="10" stroke-width="1"/>
            <line id="Line_658" data-name="Line 658" x1="5.749" transform="translate(0 4.125)" fill="none" stroke="#000" stroke-linecap="round" stroke-linejoin="round" stroke-miterlimit="10" stroke-width="1"/>
          </g>
          <g id="Group_1178820" data-name="Group 1178820" transform="translate(31.693)">
            <line id="Line_659" data-name="Line 659" y2="5.749" transform="translate(4.125)" fill="none" stroke="#000" stroke-linecap="round" stroke-linejoin="round" stroke-miterlimit="10" stroke-width="1"/>
            <line id="Line_660" data-name="Line 660" x2="5.749" transform="translate(0 4.125)" fill="none" stroke="#000" stroke-linecap="round" stroke-linejoin="round" stroke-miterlimit="10" stroke-width="1"/>
          </g>
        </g>
        <g id="Group_1178823" data-name="Group 1178823" transform="translate(4.918 15.051)">
          <g id="Group_1178822" data-name="Group 1178822" transform="translate(0 0)">
            <line id="Line_661" data-name="Line 661" y1="5.749" transform="translate(1.624)" fill="none" stroke="#000" stroke-linecap="round" stroke-linejoin="round" stroke-miterlimit="10" stroke-width="1"/>
            <line id="Line_662" data-name="Line 662" x1="5.749" transform="translate(0 1.624)" fill="none" stroke="#000" stroke-linecap="round" stroke-linejoin="round" stroke-miterlimit="10" stroke-width="1"/>
          </g>
        </g>
        <g id="Group_1178825" data-name="Group 1178825" transform="translate(10.667 16.675)">
          <g id="Group_1178824" data-name="Group 1178824">
            <line id="Line_663" data-name="Line 663" x2="1.501" fill="none" stroke="#000" stroke-linecap="round" stroke-linejoin="round" stroke-width="1"/>
            <line id="Line_664" data-name="Line 664" x2="17.692" transform="translate(5.432)" fill="none" stroke="#000" stroke-linecap="round" stroke-linejoin="round" stroke-width="1" stroke-dasharray="20.96 31.44"/>
            <line id="Line_665" data-name="Line 665" x2="1.501" transform="translate(25.089)" fill="none" stroke="#000" stroke-linecap="round" stroke-linejoin="round" stroke-width="1"/>
          </g>
        </g>
        <path id="Path_1034666" data-name="Path 1034666" d="M27.8,58.065V9.837A2.337,2.337,0,0,1,30.138,7.5h42.6a2.337,2.337,0,0,1,2.337,2.337v4.317" transform="translate(-27.801 -7.5)" fill="none" stroke="#000" stroke-linecap="round" stroke-linejoin="round" stroke-miterlimit="10" stroke-width="1"/>
        <path id="Path_1034667" data-name="Path 1034667" d="M75.079,119.87v37.463L64.446,167.967H30.138A2.337,2.337,0,0,1,27.8,165.63v-4.848" transform="translate(-27.801 -105.818)" fill="none" stroke="#000" stroke-linecap="round" stroke-linejoin="round" stroke-miterlimit="10" stroke-width="1"/>
        <path id="Path_1034668" data-name="Path 1034668" d="M320.852,430.094v-8.3a2.337,2.337,0,0,1,2.337-2.337h8.3Z" transform="translate(-284.207 -367.946)" fill="none" stroke="#000" stroke-linecap="round" stroke-linejoin="round" stroke-miterlimit="10" stroke-width="1"/>
        <line id="Line_666" data-name="Line 666" transform="translate(23.196 45.474)" fill="none" stroke="#000" stroke-linecap="round" stroke-linejoin="round" stroke-miterlimit="10" stroke-width="1"/>
        <g id="Group_1178826" data-name="Group 1178826" transform="translate(11.226 23.62)">
          <path id="Path_1034669" data-name="Path 1034669" d="M117.579,198.559v9.081h25.6v-1.287c0-2.386-3.1-5.058-6.428-5.058-4.248,0-8.056-1.808-9.775-4.067a2.155,2.155,0,0,0-1.718-.842h-5.5A2.174,2.174,0,0,0,117.579,198.559Z" transform="translate(-117.579 -196.385)" fill="none" stroke="#000" stroke-linecap="round" stroke-linejoin="round" stroke-miterlimit="10" stroke-width="1"/>
          <path id="Path_1034670" data-name="Path 1034670" d="M117.579,286.391h25.6v2.477A1.178,1.178,0,0,1,142,290.045H118.757a1.178,1.178,0,0,1-1.178-1.178Z" transform="translate(-117.579 -275.136)" fill="none" stroke="#000" stroke-linecap="round" stroke-linejoin="round" stroke-miterlimit="10" stroke-width="1"/>
        </g>
      </g>
    </g>
  </g>
</svg>
