<svg xmlns="http://www.w3.org/2000/svg" xmlns:xlink="http://www.w3.org/1999/xlink" width="318" height="144" viewBox="0 0 318 144">
  <defs>
    <filter id="Rectangle_405442" x="0" y="12" width="318" height="120" filterUnits="userSpaceOnUse">
      <feOffset dx="6" dy="7" input="SourceAlpha"/>
      <feGaussianBlur stdDeviation="4" result="blur"/>
      <feFlood flood-opacity="0.251"/>
      <feComposite operator="in" in2="blur"/>
      <feComposite in="SourceGraphic"/>
    </filter>
    <filter id="Rectangle_405441" x="94" y="0" width="130" height="144" filterUnits="userSpaceOnUse">
      <feOffset dx="6" dy="7" input="SourceAlpha"/>
      <feGaussianBlur stdDeviation="4" result="blur-2"/>
      <feFlood flood-opacity="0.251"/>
      <feComposite operator="in" in2="blur-2"/>
      <feComposite in="SourceGraphic"/>
    </filter>
  </defs>
  <g id="Group_1178947" data-name="Group 1178947" transform="translate(-1107.051 -4738)">
    <g id="Group_1178946" data-name="Group 1178946">
      <g transform="matrix(1, 0, 0, 1, 1107.05, 4738)" filter="url(#Rectangle_405442)">
        <g id="Rectangle_405442-2" data-name="Rectangle 405442" transform="translate(6 17)" fill="#32d5d3" stroke="#fff" stroke-width="3">
          <path d="M0,0H265a29,29,0,0,1,29,29V67a29,29,0,0,1-29,29H29A29,29,0,0,1,0,67V0A0,0,0,0,1,0,0Z" stroke="none"/>
          <path d="M1.5,1.5H265A27.5,27.5,0,0,1,292.5,29V67A27.5,27.5,0,0,1,265,94.5H29A27.5,27.5,0,0,1,1.5,67V1.5A0,0,0,0,1,1.5,1.5Z" fill="none"/>
        </g>
      </g>
      <g transform="matrix(1, 0, 0, 1, 1107.05, 4738)" filter="url(#Rectangle_405441)">
        <g id="Rectangle_405441-2" data-name="Rectangle 405441" transform="translate(100 5)" fill="#e0ee33" stroke="#fff" stroke-width="3">
          <path d="M0,0H77a29,29,0,0,1,29,29V91a29,29,0,0,1-29,29H29A29,29,0,0,1,0,91V0A0,0,0,0,1,0,0Z" stroke="none"/>
          <path d="M1.5,1.5H77A27.5,27.5,0,0,1,104.5,29V91A27.5,27.5,0,0,1,77,118.5H29A27.5,27.5,0,0,1,1.5,91V1.5A0,0,0,0,1,1.5,1.5Z" fill="none"/>
        </g>
      </g>
    </g>
    <g id="Layer_20" data-name="Layer 20" transform="translate(1197.051 4744.161)">
      <path id="Path_1035352" data-name="Path 1035352" d="M50.306,10,61.592,24.107a16.122,16.122,0,0,0,12.576,6.046H96.658A18.138,18.138,0,0,1,114.8,48.291V70.459H54.337L42.245,64.413v6.046H10V10Z" transform="translate(9.138 1.015)" fill="#f3a845"/>
      <path id="Path_1035353" data-name="Path 1035353" d="M76.505,52.322a8.061,8.061,0,0,0,8.061-8.061V30.153h-10.4a16.122,16.122,0,0,1-12.576-6.046L50.306,10H10V52.322Z" transform="translate(9.138 1.015)" fill="#eecc61"/>
      <path id="Path_1035354" data-name="Path 1035354" d="M44.26,33H10V47.107H42.245V41.061l12.092,6.046H114.8V39.046H56.352Z" transform="translate(9.138 24.367)" fill="#686868"/>
      <g id="Group_1179105" data-name="Group 1179105" transform="translate(19.138 11.015)">
        <path id="Path_1035355" data-name="Path 1035355" d="M57.94,20.05A20.153,20.153,0,0,0,50,36.072V52.194H74.184V38.087A18.137,18.137,0,0,0,57.942,20.05Z" transform="translate(30.612 0.204)" fill="#474747"/>
        <path id="Path_1035356" data-name="Path 1035356" d="M10,22.092H44.26L50.306,10H10Z" transform="translate(-10 -10)" fill="#474747"/>
        <path id="Path_1035357" data-name="Path 1035357" d="M18.061,20H10V38.138h8.061a4.031,4.031,0,0,0,4.031-4.031V24.031A4.031,4.031,0,0,0,18.061,20Z" transform="translate(-10 0.153)" fill="#474747"/>
      </g>
      <path id="Path_1035358" data-name="Path 1035358" d="M10,10v6.046H38.214a4.031,4.031,0,0,0,4.031-4.031V10Z" transform="translate(9.138 1.015)" fill="#686868"/>
      <path id="Path_1035359" data-name="Path 1035359" d="M42.306,24,53.592,38.107a16.122,16.122,0,0,0,12.576,6.046H88.658A18.138,18.138,0,0,1,106.8,62.291V84.459H46.337L34.245,78.413v6.046H2V24Z" transform="translate(1.015 15.23)" fill="#f3a845"/>
      <path id="Path_1035360" data-name="Path 1035360" d="M68.505,66.322a8.061,8.061,0,0,0,8.061-8.061V44.153h-10.4a16.122,16.122,0,0,1-12.576-6.046L42.306,24H2V66.322Z" transform="translate(1.015 15.23)" fill="#eecc61"/>
      <path id="Path_1035361" data-name="Path 1035361" d="M36.26,47H2V61.107H34.245V55.061l12.092,6.046H106.8V53.046H48.352Z" transform="translate(1.015 38.582)" fill="#686868"/>
      <path id="Path_1035362" data-name="Path 1035362" d="M49.94,34.05A20.153,20.153,0,0,0,42,50.072V66.194H66.184V52.087A18.137,18.137,0,0,0,49.942,34.05Z" transform="translate(41.628 25.434)" fill="#474747"/>
      <path id="Path_1035363" data-name="Path 1035363" d="M2,36.092H36.26L42.306,24H2Z" transform="translate(1.015 15.23)" fill="#474747"/>
      <path id="Path_1035364" data-name="Path 1035364" d="M10.061,34H2V52.138h8.061a4.031,4.031,0,0,0,4.031-4.031V38.031A4.031,4.031,0,0,0,10.061,34Z" transform="translate(1.015 25.383)" fill="#474747"/>
      <path id="Path_1035365" data-name="Path 1035365" d="M2,24v6.046H30.214a4.031,4.031,0,0,0,4.031-4.031V24Z" transform="translate(1.015 15.23)" fill="#686868"/>
      <path id="Path_1035366" data-name="Path 1035366" d="M105.8,29.153H83.305a14.107,14.107,0,0,1-11-5.3L61.016,9.746A2.015,2.015,0,0,0,59.444,9H19.138a2.015,2.015,0,0,0-2.015,2.015v26.2H3.015A2.015,2.015,0,0,0,1,39.23V99.689A2.015,2.015,0,0,0,3.015,101.7H35.26a2.015,2.015,0,0,0,2.015-2.015V96.908l9.17,4.575a2.015,2.015,0,0,0,.907.222h60.459a2.015,2.015,0,0,0,2.015-2.015V77.521a20.555,20.555,0,0,0-.4-4.031h14.51a2.015,2.015,0,0,0,2.015-2.015V49.306A20.153,20.153,0,0,0,105.8,29.153ZM69.521,26.674l-3.587,5.4,3.345,2.217,3.2-4.8a17.674,17.674,0,0,0,4.293,2.418l-2.781,4.192,3.345,2.217,3.466-5.341a17.17,17.17,0,0,0,2.5.2h19.508a22.33,22.33,0,0,0-5.079,14.107v8.061h4.031V47.291a18.138,18.138,0,0,1,6.53-13.885,16.122,16.122,0,0,1,13.623,15.9V61.4H101.766a20.032,20.032,0,0,0-12.092-4.031H67.183a14.107,14.107,0,0,1-11-5.3L44.893,37.96a2.015,2.015,0,0,0-1.572-.746H33.245V35.2A6.046,6.046,0,0,0,27.2,29.153H21.153V25.122H53.4a2.015,2.015,0,0,0,1.794-1.108l4.655-9.27,4.333,5.421-4.333,5.764,3.224,2.418,3.708-4.938,2.378,2.963ZM105.8,89.612H85.643V75.505a18.138,18.138,0,0,1,6.53-13.885,16.122,16.122,0,0,1,13.623,15.9ZM11.077,79.536a6.046,6.046,0,0,0,6.046-6.046V63.413a6.046,6.046,0,0,0-6.046-6.046H5.031V53.337H37.276a2.015,2.015,0,0,0,1.794-1.108l4.655-9.27,4.333,5.421-4.333,5.764,3.224,2.418,3.708-4.938,2.378,2.963.262.3-3.587,5.4,3.345,2.217,3.2-4.8a17.675,17.675,0,0,0,4.293,2.418L57.771,64.32l3.345,2.217L64.684,61.2a17.17,17.17,0,0,0,2.5.2H86.691a22.33,22.33,0,0,0-5.079,14.107V89.612H49.851L38.182,83.788a2.015,2.015,0,0,0-.907-.222H5.031V79.536ZM5.031,75.505V61.4h6.046a2.015,2.015,0,0,1,2.015,2.015V73.49a2.015,2.015,0,0,1-2.015,2.015ZM56.179,13.031l-4.031,8.061h-31V13.031ZM21.153,33.184H27.2A2.015,2.015,0,0,1,29.214,35.2v2.015H21.153Zm-4.031,8.061H40.057l-4.031,8.061h-31V41.245ZM47.836,97.674,36.167,91.849a2.015,2.015,0,0,0-2.922,1.794v4.031H5.031V87.6H36.792l11.669,5.824a2.015,2.015,0,0,0,.907.222H105.8v4.031Zm60.3-28.214a19.287,19.287,0,0,0-2.338-4.031h16.122v4.031Z"/>
    </g>
  </g>
</svg>
