<svg xmlns="http://www.w3.org/2000/svg" xmlns:xlink="http://www.w3.org/1999/xlink" width="347.949" height="347.949" viewBox="0 0 347.949 347.949">
  <defs>
    <clipPath id="clip-path">
      <rect id="Rectangle_405106" data-name="Rectangle 405106" width="291.122" height="291.122" fill="#fff"/>
    </clipPath>
  </defs>
  <g id="Group_1178921" data-name="Group 1178921" transform="translate(-282.051 -2729)">
    <path id="Path_1034858" data-name="Path 1034858" d="M173.975,0A173.975,173.975,0,1,1,0,173.975,173.975,173.975,0,0,1,173.975,0Z" transform="translate(282.051 2729)" fill="#8d6aaa"/>
    <g id="Group_1178708" data-name="Group 1178708" transform="translate(312.977 2757.842)">
      <g id="Group_1177601" data-name="Group 1177601" transform="translate(0 0)">
        <g id="Group_1177600" data-name="Group 1177600" transform="translate(0 0)" clip-path="url(#clip-path)">
          <path id="Path_1033898" data-name="Path 1033898" d="M221.679,108c-.607,1.515-1.76,3.074-3.593,2.851a4.177,4.177,0,0,1-1.291-.387c-3.582-1.578-7.337-2.728-10.885-4.386a10.5,10.5,0,0,1-4.229-3.1,10,10,0,0,1-1.7-4.48,32.563,32.563,0,0,1-.227-5.022,27.772,27.772,0,0,1,.463-5.505,10.368,10.368,0,0,1,2.074-4.542,9.437,9.437,0,0,1,3.259-2.492,11.791,11.791,0,0,1,8.276-.545,12.557,12.557,0,0,1,6.913,5.6,17.263,17.263,0,0,1,2.443,9.055c-.009,2.148-.091,4.31-.263,6.451a22.35,22.35,0,0,1-1.24,6.5" transform="translate(-95.549 -38.217)" fill="#fff"/>
          <path id="Path_1033899" data-name="Path 1033899" d="M179.257,105.089a.332.332,0,0,1-.038.112c0,.013,0,.025,0,.039-.15.914-.267,1.834-.43,2.747a8.273,8.273,0,0,1-.591,2.049,5.278,5.278,0,0,1-3.335,2.753,8.238,8.238,0,0,1-5.09-.178,4.871,4.871,0,0,1-2.051-1.442,7.914,7.914,0,0,1-1.344-2.648c-.354-1.079-.65-2.183-.929-3.283a22.33,22.33,0,0,1-.656-3.652,10.4,10.4,0,0,1,1.128-5.941,6.5,6.5,0,0,1,4.233-3.267,7.82,7.82,0,0,1,8.826,4.905,14.111,14.111,0,0,1,.458,6.211c-.051.533-.114,1.065-.179,1.6" transform="translate(-78.806 -44.112)" fill="#fff"/>
          <path id="Path_1033900" data-name="Path 1033900" d="M149.856,125.34a5.762,5.762,0,0,1-7.643-1.847,9.141,9.141,0,0,1-.93-2.5,27.362,27.362,0,0,1-.5-2.691,12.479,12.479,0,0,1,.322-5.485,7.11,7.11,0,0,1,2.776-3.718,5.115,5.115,0,0,1,4.46-.654,6.647,6.647,0,0,1,3.464,2.919,13.238,13.238,0,0,1,1.576,5.259c.057.453.1.908.15,1.363a.489.489,0,0,1,.018.066,6.759,6.759,0,0,1-.735,4.383,7.612,7.612,0,0,1-2.96,2.908" transform="translate(-67.269 -51.753)" fill="#fff"/>
          <path id="Path_1033901" data-name="Path 1033901" d="M128.412,144.559a5.4,5.4,0,0,1-3.714.184,4.545,4.545,0,0,1-2.827-2.484,8.351,8.351,0,0,1-.582-2.16c-.123-.808-.208-1.623-.251-2.439a10.022,10.022,0,0,1,.726-4.732c1.107-2.39,3.879-4.239,6.508-3.072a5.938,5.938,0,0,1,2.833,2.852,11.715,11.715,0,0,1,.97,4.579c.018.35.031.7.042,1.049,0,.011.007.022.008.033a5.972,5.972,0,0,1-.93,3.868,6.5,6.5,0,0,1-2.782,2.322" transform="translate(-57.887 -61.944)" fill="#fff"/>
          <path id="Path_1033902" data-name="Path 1033902" d="M106.239,155.544a6.045,6.045,0,0,1,2.4-3.019,3.823,3.823,0,0,1,3.632-.265,5.656,5.656,0,0,1,2.632,2.792,12.624,12.624,0,0,1,.977,4.585c.024.375.041.75.057,1.125a.592.592,0,0,1,.011.069,6.229,6.229,0,0,1-.812,3.787,6.1,6.1,0,0,1-2.487,2.317,4.614,4.614,0,0,1-3.459.233,4.374,4.374,0,0,1-2.672-2.525,9.288,9.288,0,0,1-.554-2.17c-.117-.779-.209-1.565-.258-2.352a11.017,11.017,0,0,1,.534-4.576" transform="translate(-50.547 -72.67)" fill="#fff"/>
          <path id="Path_1033903" data-name="Path 1033903" d="M179.722,278.24c-2.022-2.894-4.395-5.515-6.685-8.194-1.142-1.336-2.265-2.689-3.315-4.1a.59.59,0,0,0-.041-.046.6.6,0,0,0-.04-.06c-3.839-4.676-7.821-9.232-11.7-13.878-1.963-2.354-3.9-4.729-5.778-7.153-1.825-2.359-3.548-4.789-5.259-7.231-3.361-4.791-6.669-9.7-8.672-15.239a49.217,49.217,0,0,1-2.158-8.378,52.427,52.427,0,0,1-.807-8.543,23.176,23.176,0,0,1,5.662-14.585q.65-.773,1.364-1.488a22.52,22.52,0,0,1,5.013-3.788,25.682,25.682,0,0,1,8.175-2.742,53.038,53.038,0,0,1,8.611-.615,51.033,51.033,0,0,0,8.06-.515c5.48-.9,11.023-3.4,13.626-8.592a16.978,16.978,0,0,0-.621-15.728,23.917,23.917,0,0,0-12.814-10.327c-6.055-2.2-12.721-2.442-19.08-1.836a56.286,56.286,0,0,0-16.847,4.21,43.384,43.384,0,0,0-14.217,9.66,37.534,37.534,0,0,0-8.6,14.385,35.277,35.277,0,0,0-1.3,16.611,32.487,32.487,0,0,0,.948,4.058c2.045,7.461,3.973,14.955,5.714,22.493,1.781,7.715,3.369,15.478,4.663,23.29,1.267,7.646,2.251,15.344,2.795,23.076s1,15.442,2.653,23.039a58.556,58.556,0,0,0,6.514,17.514,31.471,31.471,0,0,0,11.853,11.749,28.831,28.831,0,0,0,9.322,3.219,26.888,26.888,0,0,0,11.217-.866c5.777-1.591,11.779-4.367,15.114-9.59a19.382,19.382,0,0,0,2.677-9.352,30.924,30.924,0,0,0-1.365-10.819,34.232,34.232,0,0,0-4.68-9.639" transform="translate(-53.499 -69.319)" fill="#fff"/>
          <path id="Path_1033904" data-name="Path 1033904" d="M314.905,108c.607,1.515,1.76,3.074,3.593,2.851a4.177,4.177,0,0,0,1.291-.387c3.582-1.578,7.337-2.728,10.885-4.386a10.5,10.5,0,0,0,4.229-3.1,10,10,0,0,0,1.7-4.48,32.561,32.561,0,0,0,.228-5.022,27.809,27.809,0,0,0-.463-5.505,10.373,10.373,0,0,0-2.073-4.542,9.444,9.444,0,0,0-3.259-2.492,11.791,11.791,0,0,0-8.276-.545,12.557,12.557,0,0,0-6.913,5.6,17.263,17.263,0,0,0-2.443,9.055c.009,2.148.091,4.31.263,6.451a22.351,22.351,0,0,0,1.24,6.5" transform="translate(-149.914 -38.217)" fill="#fff"/>
          <path id="Path_1033905" data-name="Path 1033905" d="M365.222,105.089a.332.332,0,0,0,.038.112c0,.013,0,.025,0,.039.15.914.267,1.834.43,2.747a8.273,8.273,0,0,0,.591,2.049,5.278,5.278,0,0,0,3.335,2.753,8.238,8.238,0,0,0,5.09-.178,4.871,4.871,0,0,0,2.051-1.442,7.913,7.913,0,0,0,1.344-2.648c.354-1.079.65-2.183.929-3.283a22.333,22.333,0,0,0,.656-3.652,10.4,10.4,0,0,0-1.128-5.941,6.5,6.5,0,0,0-4.233-3.267,7.82,7.82,0,0,0-8.826,4.905,14.11,14.11,0,0,0-.458,6.211c.051.533.114,1.065.179,1.6" transform="translate(-174.552 -44.112)" fill="#fff"/>
          <path id="Path_1033906" data-name="Path 1033906" d="M396.284,125.34a5.762,5.762,0,0,0,7.643-1.847,9.142,9.142,0,0,0,.93-2.5c.211-.886.377-1.788.5-2.691a12.479,12.479,0,0,0-.322-5.485,7.109,7.109,0,0,0-2.776-3.718,5.115,5.115,0,0,0-4.46-.654,6.646,6.646,0,0,0-3.464,2.919,13.238,13.238,0,0,0-1.576,5.259c-.057.453-.1.908-.15,1.363a.489.489,0,0,0-.018.066,6.759,6.759,0,0,0,.735,4.383,7.611,7.611,0,0,0,2.96,2.908" transform="translate(-187.749 -51.753)" fill="#fff"/>
          <path id="Path_1033907" data-name="Path 1033907" d="M419.452,144.559a5.4,5.4,0,0,0,3.714.184,4.546,4.546,0,0,0,2.827-2.484,8.351,8.351,0,0,0,.582-2.16c.123-.808.208-1.623.251-2.439a10.023,10.023,0,0,0-.726-4.732c-1.107-2.39-3.879-4.239-6.508-3.072a5.942,5.942,0,0,0-2.833,2.852,11.724,11.724,0,0,0-.97,4.579c-.018.35-.031.7-.042,1.049,0,.011-.007.022-.008.033a5.971,5.971,0,0,0,.93,3.868,6.5,6.5,0,0,0,2.782,2.322" transform="translate(-198.855 -61.944)" fill="#fff"/>
          <path id="Path_1033908" data-name="Path 1033908" d="M442.382,155.544a6.046,6.046,0,0,0-2.4-3.019,3.823,3.823,0,0,0-3.632-.265,5.656,5.656,0,0,0-2.632,2.792,12.623,12.623,0,0,0-.977,4.585c-.024.375-.041.75-.057,1.125a.6.6,0,0,0-.011.069,6.229,6.229,0,0,0,.812,3.787,6.1,6.1,0,0,0,2.487,2.317,4.614,4.614,0,0,0,3.459.233,4.375,4.375,0,0,0,2.672-2.525,9.29,9.29,0,0,0,.554-2.17c.117-.779.209-1.565.258-2.352a11.018,11.018,0,0,0-.534-4.576" transform="translate(-206.952 -72.67)" fill="#fff"/>
          <path id="Path_1033909" data-name="Path 1033909" d="M309.043,278.24c2.022-2.894,4.395-5.515,6.686-8.194,1.142-1.336,2.264-2.689,3.314-4.1a.512.512,0,0,1,.042-.046.6.6,0,0,1,.04-.06c3.839-4.676,7.821-9.232,11.7-13.878,1.963-2.354,3.9-4.729,5.778-7.153,1.825-2.359,3.548-4.789,5.26-7.231,3.36-4.791,6.669-9.7,8.673-15.239a49.217,49.217,0,0,0,2.158-8.378,52.316,52.316,0,0,0,.807-8.543,23.175,23.175,0,0,0-5.661-14.585q-.65-.773-1.364-1.488a22.52,22.52,0,0,0-5.013-3.788,25.678,25.678,0,0,0-8.175-2.742,53.034,53.034,0,0,0-8.611-.615,51.033,51.033,0,0,1-8.06-.515c-5.48-.9-11.023-3.4-13.626-8.592a16.98,16.98,0,0,1,.621-15.728,23.917,23.917,0,0,1,12.814-10.327c6.055-2.2,12.721-2.442,19.08-1.836a56.287,56.287,0,0,1,16.847,4.21,43.378,43.378,0,0,1,14.217,9.66,37.536,37.536,0,0,1,8.6,14.385,35.277,35.277,0,0,1,1.3,16.611,32.567,32.567,0,0,1-.947,4.058c-2.045,7.461-3.973,14.955-5.714,22.493-1.781,7.715-3.369,15.478-4.663,23.29-1.267,7.646-2.251,15.344-2.795,23.076s-1,15.442-2.652,23.039a58.557,58.557,0,0,1-6.515,17.514,31.474,31.474,0,0,1-11.852,11.749,28.831,28.831,0,0,1-9.323,3.219,26.887,26.887,0,0,1-11.217-.866c-5.777-1.591-11.78-4.367-15.115-9.59A19.387,19.387,0,0,1,303,298.7a30.922,30.922,0,0,1,1.364-10.819,34.232,34.232,0,0,1,4.68-9.639" transform="translate(-144.145 -69.319)" fill="#fff"/>
        </g>
      </g>
    </g>
  </g>
</svg>
